<?xml version="1.0" standalone="no"?>
<!DOCTYPE svg PUBLIC "-//W3C//DTD SVG 20010904//EN"
 "http://www.w3.org/TR/2001/REC-SVG-20010904/DTD/svg10.dtd">
<svg version="1.0" xmlns="http://www.w3.org/2000/svg"
 width="1280.000000pt" height="589.000000pt" viewBox="0 0 1280.000000 589.000000"
 preserveAspectRatio="xMidYMid meet">
<metadata>
Created by potrace 1.15, written by Peter Selinger 2001-2017
</metadata>
<g transform="translate(0.000000,589.000000) scale(0.100000,-0.100000)"
fill="#ffff" stroke="none">
<path d="M7315 5655 c-5 -2 -23 -6 -38 -9 -36 -8 -111 -78 -143 -131 -32 -56
-69 -164 -85 -256 -9 -52 -14 -65 -17 -44 -16 144 -81 302 -154 372 -49 47
-83 63 -136 63 -79 0 -130 -59 -139 -160 -9 -93 47 -243 131 -353 44 -57 45
-67 6 -34 -144 122 -356 179 -460 124 -77 -41 -99 -116 -57 -199 l23 -45 -33
13 c-96 41 -307 -7 -438 -100 -22 -15 -14 -3 25 42 109 125 170 247 170 341
-1 53 -33 117 -69 135 -41 22 -104 20 -149 -3 -84 -43 -178 -189 -215 -331
l-14 -55 -7 83 c-14 154 -49 253 -116 326 -88 96 -198 82 -247 -31 -38 -88 -6
-263 72 -395 l33 -57 -71 60 c-84 71 -205 134 -275 144 -59 8 -121 -7 -159
-39 -15 -13 -45 -26 -66 -29 -67 -11 -130 -48 -205 -124 -49 -50 -68 -64 -57
-44 22 44 45 148 45 208 0 186 -163 238 -238 75 -21 -47 -27 -75 -30 -158 l-4
-102 -32 59 c-42 79 -99 145 -146 169 -55 28 -112 26 -147 -4 -25 -22 -28 -31
-28 -88 0 -78 31 -136 117 -220 53 -53 54 -68 0 -27 -17 13 -43 18 -109 18
-98 1 -149 -10 -185 -39 -25 -19 -26 -19 -43 0 -25 28 -77 43 -108 31 -40 -15
-57 -49 -57 -113 0 -50 -3 -58 -19 -58 -10 0 -41 -15 -69 -34 -27 -19 -68 -40
-91 -46 -55 -15 -75 -46 -68 -108 4 -35 -2 -68 -22 -131 l-28 -84 -6 94 c-10
171 -75 309 -169 357 -36 19 -56 23 -82 18 -49 -9 -91 -48 -112 -102 l-17 -45
-21 20 c-12 10 -37 26 -56 34 -23 10 -28 16 -16 16 31 2 86 41 92 67 4 14 1
31 -6 39 -16 19 -77 19 -114 0 -37 -20 -39 -19 -22 8 8 12 18 38 21 59 6 29 3
40 -14 57 -12 12 -25 21 -30 21 -22 0 -62 -45 -73 -82 l-12 -41 -9 29 c-25 75
-73 108 -108 73 -24 -24 -24 -55 -1 -101 l19 -36 -33 14 c-19 8 -49 14 -67 14
-75 0 -74 -69 1 -107 l43 -21 -36 -18 c-43 -20 -69 -56 -62 -83 4 -17 2 -18
-20 -10 -63 24 -168 -25 -264 -122 l-68 -69 19 43 c44 100 51 244 14 305 -38
66 -113 78 -168 27 -47 -44 -69 -109 -75 -222 l-6 -103 -34 65 c-89 173 -250
244 -306 135 -39 -75 -1 -177 104 -280 l69 -68 -42 19 c-70 31 -178 44 -241
30 -62 -14 -114 -56 -116 -93 -4 -84 36 -129 146 -164 23 -7 31 -13 20 -13
-17 -1 -24 -12 -36 -66 -10 -44 -12 -66 -4 -69 5 -2 -277 -5 -627 -5 l-638 -1
0 -945 0 -945 506 0 c284 0 503 -4 500 -9 -3 -4 20 -16 52 -25 31 -9 74 -25
94 -35 26 -13 38 -15 42 -7 2 6 5 -11 5 -37 1 -40 6 -54 31 -79 41 -41 80 -34
137 26 23 24 43 43 45 41 2 -1 20 -5 41 -8 27 -4 36 -3 31 6 -3 7 6 -3 21 -21
30 -36 73 -62 104 -62 11 0 32 10 47 23 21 18 28 35 32 75 l5 52 76 0 c85 0
92 -3 112 -45 l15 -30 -44 4 c-47 3 -82 -17 -82 -50 0 -20 64 -79 85 -79 21 0
18 -18 -4 -25 -33 -10 -71 -53 -71 -79 0 -53 60 -66 132 -30 l27 14 -15 -35
c-29 -69 -11 -125 41 -125 26 0 67 46 80 89 7 22 8 21 25 -17 24 -53 62 -79
95 -64 30 14 41 52 26 94 -14 39 -4 50 34 40 39 -11 75 -2 90 23 18 28 3 61
-40 86 l-35 21 41 39 c34 33 40 45 37 70 -3 20 -1 26 6 19 14 -14 29 -13 20 1
-4 7 17 -7 46 -30 30 -24 75 -53 102 -67 58 -29 191 -73 227 -75 14 -1 -14 -6
-64 -10 -197 -19 -344 -90 -396 -190 -76 -149 76 -264 283 -215 79 18 179 62
244 106 l46 31 -50 -58 c-107 -125 -159 -230 -168 -336 -5 -52 -2 -69 18 -107
56 -109 163 -119 268 -24 79 71 131 169 171 319 l18 70 0 -57 c2 -142 57 -307
129 -381 48 -50 82 -67 133 -67 116 0 179 126 145 290 -16 73 -74 210 -118
273 l-21 32 39 -36 c101 -93 214 -160 312 -183 31 -8 49 -15 40 -15 -17 -1
-17 -2 0 -22 9 -12 22 -26 28 -32 8 -8 3 -18 -18 -35 -22 -18 -28 -32 -28 -62
0 -67 80 -118 190 -121 25 -1 35 -4 22 -6 -12 -2 -20 -9 -16 -14 3 -5 11 -6
17 -2 7 3 -12 -16 -42 -42 -83 -76 -103 -144 -55 -192 22 -22 32 -25 75 -21
32 3 63 15 90 34 23 16 52 36 65 45 13 9 22 18 19 21 -3 3 1 10 8 17 12 9 12
3 1 -41 -25 -96 -12 -182 33 -218 83 -65 173 34 173 192 l0 53 21 -35 c28 -46
87 -108 121 -126 67 -35 138 1 138 71 0 53 -23 99 -80 159 l-50 53 52 -13 c29
-8 74 -14 100 -14 35 0 48 -4 48 -14 0 -24 52 -78 95 -97 97 -44 256 -8 403
93 59 41 73 26 33 -36 -110 -174 -122 -388 -26 -462 153 -116 355 100 382 410
l6 69 17 -84 c23 -109 60 -206 106 -275 105 -158 263 -179 332 -44 54 108 8
281 -125 458 l-54 73 47 -37 c59 -44 182 -107 253 -128 126 -37 249 -11 299
64 31 45 27 125 -8 172 -20 28 -21 30 -4 23 10 -5 58 -10 105 -13 76 -3 97 0
172 26 48 16 84 26 82 22 -11 -17 29 -19 48 -3 11 10 -1 -13 -27 -51 -105
-158 -125 -307 -53 -391 29 -34 39 -39 88 -43 70 -5 116 17 181 86 56 59 104
150 134 252 l22 75 6 -40 c28 -187 63 -287 127 -360 89 -101 214 -93 268 18
26 53 28 155 6 240 -15 58 -72 180 -108 230 -13 19 9 6 64 -39 180 -146 358
-186 459 -105 19 15 53 31 74 35 54 10 128 49 179 93 33 29 36 31 15 7 l-28
-30 28 1 c15 0 31 5 35 10 4 6 5 -20 1 -56 -8 -85 14 -165 57 -208 25 -25 39
-31 74 -31 88 0 147 91 164 250 5 41 9 67 10 58 0 -10 5 -18 11 -18 5 0 7 8 3
17 -3 10 7 0 22 -22 48 -69 98 -117 150 -141 58 -28 85 -30 125 -9 77 40 79
145 5 255 -19 28 -31 49 -27 46 4 -2 26 6 50 19 25 14 38 25 30 28 -7 3 5 6
27 6 53 1 114 19 147 43 27 19 28 19 56 -2 15 -11 44 -23 65 -27 32 -5 40 -2
72 30 32 32 35 40 35 94 l0 58 53 24 c28 13 55 24 59 23 3 -1 12 6 20 16 12
16 11 16 -7 2 -18 -14 -19 -14 -7 1 7 10 28 20 47 23 42 8 91 48 99 81 4 14 0
39 -7 57 -11 27 -11 38 -1 63 7 17 13 24 14 17 0 -7 -5 -23 -11 -35 -10 -22
-10 -22 6 -2 9 11 21 19 26 18 5 -2 10 9 10 25 1 17 5 8 10 -23 22 -116 60
-204 116 -266 48 -53 81 -69 142 -69 42 0 56 5 85 31 20 17 44 53 55 82 11 29
20 46 20 39 1 -7 14 -20 31 -31 16 -10 27 -21 22 -25 -4 -4 7 -5 23 -1 l30 6
-32 -15 c-44 -20 -83 -60 -83 -85 0 -50 66 -66 131 -33 l36 18 -16 -30 c-22
-44 -20 -105 4 -122 10 -8 24 -14 31 -14 23 0 65 45 78 84 l13 38 11 -31 c24
-68 98 -106 122 -62 14 27 12 71 -5 101 -21 37 -19 39 28 22 50 -18 92 -11
108 19 17 32 -6 65 -64 93 -47 22 -48 24 -24 30 41 10 87 54 87 84 0 26 2 27
51 23 74 -5 158 39 242 128 49 52 62 62 54 40 -6 -15 -14 -26 -18 -23 -4 2
-12 -3 -18 -10 -8 -9 -8 -17 -2 -20 5 -3 12 0 15 6 3 7 2 -5 -2 -27 -14 -80
-8 -198 12 -239 23 -46 68 -76 115 -76 26 0 43 9 76 43 56 55 75 119 75 246
l0 96 29 -54 c77 -146 202 -232 285 -197 109 46 88 192 -47 333 -33 35 -55 63
-49 63 7 0 12 -3 12 -7 0 -5 10 -9 23 -9 12 -1 53 -6 91 -11 82 -12 155 -2
203 28 40 25 66 77 57 114 l-6 25 486 0 486 0 0 945 0 945 -777 4 c-428 3
-798 6 -823 6 -25 1 -69 -1 -98 -5 l-54 -8 18 34 c25 48 25 140 0 168 -27 30
-85 28 -120 -4 -26 -24 -76 -117 -76 -142 0 -7 -4 -13 -10 -13 -5 0 -10 7 -10
15 0 27 -42 105 -72 136 -23 22 -39 29 -69 29 -33 0 -42 -5 -60 -32 -20 -33
-22 -94 -3 -141 3 -10 3 -17 -2 -16 -15 4 -44 -13 -39 -21 3 -4 -14 -3 -37 3
-30 7 -53 7 -85 -1 -24 -7 -93 -12 -153 -12 -98 0 -110 2 -110 18 0 14 2 15
10 2 8 -13 10 -13 10 1 0 9 6 22 14 28 11 9 20 6 44 -14 29 -24 90 -36 77 -15
-3 6 3 10 13 10 44 0 59 68 29 129 -14 28 -14 29 3 18 10 -6 17 -13 15 -17 -5
-8 67 -6 93 3 50 18 16 91 -53 115 l-30 10 30 11 c63 25 94 78 63 109 -18 18
-69 15 -110 -7 l-37 -18 19 38 c23 43 26 89 8 107 -32 32 -87 -2 -109 -67
l-12 -33 -12 36 c-18 51 -43 76 -77 76 -48 0 -59 -67 -22 -127 14 -22 14 -22
-21 -7 -62 26 -125 11 -125 -30 0 -22 37 -63 69 -76 l31 -12 -43 -22 c-75 -38
-71 -114 7 -117 25 -1 23 -3 -13 -9 -44 -7 -46 -6 -96 44 -58 58 -149 110
-250 142 l-70 22 50 6 c223 27 334 79 384 179 64 128 -59 230 -241 199 -79
-14 -192 -58 -264 -104 l-49 -30 61 65 c109 116 165 228 167 332 1 136 -90
198 -208 141 -88 -44 -163 -150 -210 -299 -18 -56 -23 -65 -28 -45 -4 12 -7
41 -7 64 0 64 -37 193 -73 253 -41 69 -103 111 -165 111 -79 0 -142 -87 -142
-195 0 -85 45 -220 106 -317 l26 -43 -38 36 c-95 89 -194 149 -280 170 -27 6
-68 20 -91 31 -36 16 -50 18 -89 10 -45 -10 -47 -9 -84 28 l-38 38 44 -15 c68
-23 176 -14 209 17 78 73 -24 170 -179 170 l-51 0 50 29 c28 16 68 48 88 70
30 33 37 49 37 81 0 108 -117 107 -238 -3 -28 -26 -43 -35 -39 -23 20 53 29
112 25 158 -4 42 -11 57 -37 80 -41 36 -66 35 -106 -5 -38 -38 -55 -88 -56
-172 0 -33 -3 -53 -6 -45 -17 46 -80 123 -118 145 -51 30 -74 31 -109 4 -20
-16 -26 -29 -26 -60 0 -54 19 -95 71 -153 29 -33 37 -47 24 -42 -40 15 -117
28 -141 23 -19 -3 -25 2 -35 30 -14 44 -63 80 -125 93 -99 21 -252 -31 -392
-134 l-63 -47 39 53 c159 211 189 426 71 509 -25 18 -66 29 -84 24z m542 -706
c24 -11 71 -23 104 -26 l61 -6 -31 -19 c-28 -18 -32 -18 -60 -4 -16 9 -50 16
-74 16 -80 0 -125 -79 -95 -166 l14 -40 -66 33 c-68 34 -203 73 -252 73 -17 0
-27 4 -23 10 3 6 18 10 33 10 74 0 279 78 318 121 21 23 18 23 71 -2z m-1522
-34 c50 -33 128 -61 238 -84 50 -11 79 -20 64 -20 -104 -3 -285 -72 -357 -137
-66 -60 -100 -157 -71 -204 17 -25 0 -32 -24 -10 l-22 21 23 57 c16 38 24 77
24 117 0 49 4 62 20 73 11 7 33 31 50 54 32 43 40 101 20 139 -14 25 -8 24 35
-6z m-1373 -155 c25 -11 69 -26 99 -34 l54 -15 -50 -1 c-27 0 -69 -4 -91 -9
l-41 -8 -10 44 c-6 23 -9 43 -8 43 1 0 23 -9 47 -20z m2403 -252 c5 -5 2 -8
-6 -8 -8 0 -26 15 -39 33 l-23 32 29 -25 c16 -14 33 -28 39 -32z m-4644 12
c19 0 40 5 46 11 7 7 12 -6 17 -45 8 -70 46 -173 92 -251 l36 -60 -55 52 c-73
69 -163 127 -239 152 -103 35 -176 23 -227 -35 -37 -42 -42 -104 -12 -162 22
-43 103 -122 149 -146 18 -9 32 -19 32 -22 0 -2 -9 0 -19 6 -25 13 -83 -12
-124 -55 l-29 -30 26 33 c32 41 33 79 3 123 -45 67 -166 107 -293 96 l-64 -5
57 28 c88 41 157 101 187 161 30 61 32 83 11 123 -13 24 -13 27 -1 23 14 -6
48 2 88 18 16 6 16 5 2 -24 -20 -40 -15 -90 11 -107 29 -19 65 1 90 51 l20 40
20 -40 c53 -106 147 -52 102 58 l-15 35 26 -14 c15 -8 43 -14 63 -14z m4012
-24 c-20 -30 -42 -52 -47 -49 -5 4 -7 2 -3 -3 3 -5 -9 -39 -27 -76 -25 -52
-35 -65 -47 -57 -8 5 -30 9 -49 9 l-35 0 4 43 c3 41 5 43 65 72 33 17 66 29
73 29 7 -1 11 2 10 6 -2 6 79 76 91 79 2 1 -14 -23 -35 -53z m1909 -46 c4 -3
-12 -3 -35 -1 -28 3 -34 6 -19 9 23 4 23 4 5 25 -15 18 -13 18 12 -3 17 -14
33 -27 37 -30z m-1198 1 c-2 -3 -12 3 -22 13 -16 17 -16 18 5 5 12 -7 20 -15
17 -18z m-403 -102 c-10 -23 -10 -23 -10 7 -1 17 2 34 7 38 11 12 14 -18 3
-45z m1884 -22 c11 -2 -3 -5 -30 -6 -39 -1 -53 3 -62 18 -11 18 -10 18 30 6
23 -7 51 -15 62 -18z m-1049 -44 c-7 -7 -97 -5 -105 3 -2 2 22 4 54 4 32 0 55
-3 51 -7z m-106 -57 c0 -3 -14 -14 -31 -27 -23 -16 -33 -19 -42 -10 -6 6 -7
11 -1 12 27 2 48 9 57 18 12 12 17 14 17 7z m-1473 -92 c-3 -3 -12 -4 -19 -1
-8 3 -5 6 6 6 11 1 17 -2 13 -5z m68 -18 c19 -8 35 -17 35 -20 0 -5 -79 22
-89 31 -11 8 23 1 54 -11z m1254 -59 c15 4 20 -3 25 -30 4 -19 16 -48 29 -63
12 -15 17 -25 12 -22 -6 3 -18 -5 -28 -18 -12 -16 -14 -24 -6 -24 7 0 10 -3 6
-6 -3 -4 -23 8 -44 25 -21 17 -49 32 -63 32 -19 1 -21 2 -6 6 15 4 16 7 5 14
-11 7 -11 9 3 9 21 0 38 29 39 67 0 15 3 23 5 17 3 -7 13 -10 23 -7z m-4065
-2086 c-33 -15 -80 -41 -105 -56 l-44 -28 50 55 c49 54 51 56 105 57 l55 1
-61 -29z m626 9 c6 -11 8 -20 6 -20 -3 0 -10 9 -16 20 -6 11 -8 20 -6 20 3 0
10 -9 16 -20z m27 -2 c-3 -8 -6 -5 -6 6 -1 11 2 17 5 13 3 -3 4 -12 1 -19z
m338 -22 c-23 -23 -52 -56 -66 -74 l-26 -34 25 76 24 76 41 -1 42 -2 -40 -41z
m360 -66 c3 -6 -5 -10 -19 -10 -23 0 -25 2 -16 26 6 14 10 37 11 52 1 19 4 15
10 -16 4 -23 11 -47 14 -52z m5657 0 c8 0 35 -11 61 -23 34 -18 50 -21 59 -13
7 6 -8 -12 -33 -39 -62 -67 -82 -107 -77 -159 3 -22 8 -49 12 -58 6 -14 4 -18
-11 -18 -11 0 -40 -10 -66 -23 l-46 -24 20 38 c34 68 20 129 -30 129 -32 0
-66 -32 -82 -79 l-12 -33 -17 40 c-30 66 -81 90 -114 53 -13 -14 -16 -32 -13
-73 l4 -54 -38 10 c-30 8 -42 6 -63 -7 -25 -17 -26 -17 -26 6 0 39 -29 138
-60 207 -19 41 -23 56 -12 41 15 -19 20 -20 25 -8 3 8 0 21 -6 28 -10 11 -9
11 5 0 10 -7 15 -18 11 -24 -3 -6 -1 -7 6 -3 6 4 25 -2 41 -14 60 -43 161 -81
229 -87 131 -11 204 49 199 160 -2 44 0 54 8 42 6 -8 18 -15 26 -15z m-8231 3
c13 -16 12 -17 -3 -4 -10 7 -18 15 -18 17 0 8 8 3 21 -13z m3853 -53 c9 0 19
-7 22 -15 5 -11 10 -12 26 -4 11 6 21 9 23 7 2 -2 -19 -15 -46 -31 l-49 -27 0
31 c0 17 -5 40 -11 52 -9 20 -9 20 4 5 8 -10 22 -18 31 -18z m-1351 -77 c-3
-8 2 -21 10 -31 14 -15 14 -19 -1 -37 -15 -18 -30 -20 -127 -21 l-111 0 56 28
c30 15 78 45 105 66 43 33 52 36 61 23 7 -8 9 -21 7 -28z m1219 -83 l36 0 -9
-35 c-6 -19 -7 -39 -4 -44 3 -6 -26 -26 -63 -46 -38 -20 -97 -58 -131 -86 -33
-27 -61 -47 -61 -45 0 3 21 36 48 74 26 38 60 97 77 131 24 52 33 61 50 57 11
-3 37 -6 57 -6z m-2072 -192 c-14 -6 -49 -10 -78 -9 -36 2 -52 -1 -47 -8 10
-17 -1 -13 -15 5 -12 13 -6 15 53 13 37 -1 70 1 74 4 3 4 13 7 22 6 10 0 6 -5
-9 -11z m-64 -33 c-24 -18 -33 -19 -42 -3 -4 7 -3 8 4 4 7 -4 20 -2 29 3 26
15 31 13 9 -4z m1329 -25 c3 -5 2 -10 -4 -10 -5 0 -13 5 -16 10 -3 6 -2 10 4
10 5 0 13 -4 16 -10z m-609 -29 c1 -6 0 -7 -3 -1 -2 5 -11 10 -18 10 -8 0 -17
4 -20 10 -4 6 2 7 16 1 13 -4 24 -13 25 -20z m1719 -101 c-3 -5 1 -23 10 -39
14 -28 14 -32 -10 -67 -33 -48 -40 -93 -22 -136 l14 -34 -61 32 c-73 39 -184
71 -287 83 -41 5 -62 9 -48 10 99 5 342 94 385 142 18 20 29 26 19 9z m-1415
-139 c41 -12 106 -24 144 -28 l70 -6 -94 -19 c-116 -23 -219 -66 -287 -117
l-52 -40 -37 20 c-21 10 -54 22 -73 25 -30 6 -32 8 -16 15 11 4 36 5 56 2 42
-6 91 16 114 51 19 28 22 114 6 144 -17 32 -15 32 42 2 28 -16 86 -38 127 -49z
m309 -351 c-12 -16 -27 -26 -32 -23 -6 3 2 16 17 30 36 31 41 29 15 -7z"/>
<path d="M7965 4900 c-3 -6 1 -7 9 -4 18 7 21 14 7 14 -6 0 -13 -4 -16 -10z"/>
<path d="M6700 4480 c-6 -11 -8 -20 -6 -20 3 0 10 9 16 20 6 11 8 20 6 20 -3
0 -10 -9 -16 -20z"/>
<path d="M4540 1979 c0 -5 5 -7 10 -4 6 3 10 8 10 11 0 2 -4 4 -10 4 -5 0 -10
-5 -10 -11z"/>
</g>
</svg>
