<?xml version="1.0" encoding="utf-8"?>
<!-- Generator: Adobe Illustrator 16.0.3, SVG Export Plug-In . SVG Version: 6.00 Build 0)  -->
<!DOCTYPE svg PUBLIC "-//W3C//DTD SVG 1.1//EN" "http://www.w3.org/Graphics/SVG/1.1/DTD/svg11.dtd">
<svg version="1.1" id="Capa_1" xmlns="http://www.w3.org/2000/svg" xmlns:xlink="http://www.w3.org/1999/xlink" x="0px" y="0px"
	 width="595.276px" height="510.236px" viewBox="0 0 595.276 510.236" enable-background="new 0 0 595.276 510.236"
	 xml:space="preserve">
<g>
	<defs>
		<path id="SVGID_1_" d="M422.824,438.909c-0.008,0-0.008-0.002-0.023-0.009c0.33-0.134,0.616-0.272,0.885-0.408
			c0.518,0.318,1.027,0.635,1.537,0.959C424.434,439.209,423.633,439.017,422.824,438.909 M425.222,437.453
			c2.15-2.067-1.463-3.912-6.177-5.483c0.968,0.087,1.934,0.147,2.915,0.188c3.045,2.83,7.158,4.827,11.782,6.067
			c-1.439,0.413-2.685,0.758-3.522,0.898c-0.307-0.066-0.607-0.141-0.907-0.207c-0.593-0.126-0.877,0.383-0.517,0.622
			c-0.023,0.114,0.029,0.236,0.209,0.337c0.165,0.085,0.308,0.186,0.436,0.293C428.046,439.253,426.629,438.351,425.222,437.453
			 M324.432,432.262c-1.183-0.626-2.727-1.144-4.159-1.608c0.414-0.143,0.795-0.349,1.126-0.59c2.241-0.969,4.614-2.181,6.414-3.536
			c-0.69,2.194-1.641,4.373-1.47,6.685c0.023,0.285,0.129,0.628,0.301,0.982C326.241,433.427,325.28,432.712,324.432,432.262
			 M178.643,425.917c0.232,0.161,0.489,0.335,0.779,0.501c-0.008,0-0.015,0.005-0.023,0.005c-0.815,0.019-1.663,0.124-2.502,0.281
			C177.482,426.449,178.067,426.176,178.643,425.917 M395.658,425.656c2.413,0.601,4.946,1.02,7.538,1.255
			c0.464,0.243,0.937,0.474,1.395,0.722c-0.008,0.021-0.022,0.042-0.022,0.07c-0.18,0.092-0.308,0.236-0.27,0.45
			c0.134,0.924-0.503,1.761-1.229,2.546C401.083,428.722,398.61,426.997,395.658,425.656 M168.773,424.606
			c4.857-0.746,9.382-2.288,13.04-4.762c0.981,0.061,1.964,0.096,2.945,0.11c-5.029,1.055-9.038,2.508-7.39,4.777
			c-1.604,0.741-3.207,1.482-4.795,2.239c0.157-0.089,0.313-0.171,0.495-0.241c0.21-0.082,0.285-0.192,0.285-0.308
			c0.412-0.196,0.248-0.731-0.36-0.67c-0.315,0.03-0.63,0.074-0.944,0.11C171.247,425.635,170.1,425.166,168.773,424.606
			 M209.301,416.168c-3.23,1.013-6.078,2.461-8.49,4.206c-0.54-0.856-0.976-1.745-0.623-2.647c0.075-0.201-0.008-0.363-0.172-0.476
			c0-0.019-0.008-0.045-0.008-0.07c0.517-0.186,1.034-0.373,1.543-0.561c0.255,0,0.502,0.007,0.75,0.007
			C204.663,416.627,207.016,416.475,209.301,416.168 M256.155,417.163c1.499-1.107,2.84-2.34,3.979-3.724
			c0.344,0.605,0.8,1.161,1.371,1.63c-1.123,0.78-2.18,1.604-3.147,2.471C257.63,417.394,256.896,417.268,256.155,417.163
			 M362.481,411.437h14.412c-0.278,0.619-0.549,1.153-0.817,1.543c-0.354,0.161-0.72,0.307-1.072,0.469
			c-0.262,0.122-0.346,0.293-0.308,0.443C370.65,413.024,366.58,412.208,362.481,411.437 M229.566,125.564
			c0.967,0.648,1.985,1.262,3.057,1.838h-2.6C229.895,126.777,229.738,126.158,229.566,125.564 M349.418,125.032
			c2.9-0.067,5.802-0.047,8.701-0.037c0.023,0.295,0.052,0.588,0.097,0.884c-1.184,0.453-2.315,0.96-3.402,1.523h-8.671
			C347.313,126.659,348.407,125.865,349.418,125.032 M255.547,115.836c0.48,0.202,0.959,0.408,1.433,0.618
			c2.353,2.138,4.645,4.308,6.825,6.519c-0.194,0.084-0.366,0.201-0.479,0.395c-0.135,0.229-0.082,0.446,0.06,0.633
			c-0.038-0.005-0.068-0.01-0.106-0.015c-1.97-0.749-4.061-1.338-5.867-1.752c-0.771-0.175-1.642-0.364-2.541-0.503
			c-2.877-1.829-6.241-3.233-9.921-4.253c0.059,0.003,0.111,0.01,0.171,0.013c0.091,0,0.187,0,0.278,0
			C248.841,117.492,252.453,116.911,255.547,115.836 M386.357,115.452c0.606-0.084,1.215-0.195,1.807-0.333
			c-0.832,0.397-1.664,0.793-2.474,1.206C385.929,116.045,386.139,115.748,386.357,115.452 M258.08,114.594
			c0.016-0.007,0.023-0.015,0.03-0.021c0.016,0.033,0.031,0.067,0.038,0.101C258.133,114.648,258.109,114.623,258.08,114.594
			 M355.091,118.586c0.166-0.29-0.007-0.629-0.42-0.762c0.758-0.229,1.507-0.455,2.271-0.666c5.396-1.503,11.07-2.671,16.637-3.883
			c-0.247,1.483,5.006,1.941,6.4,2.084c0.271,0.024,0.54,0.021,0.817,0.024c0.008,0.027,0.023,0.059,0.038,0.086
			c0.336,0.708,0.719,1.888,1.506,2.588c-1.058,0.568-2.105,1.157-3.147,1.744c-2.532-0.039-5.366,0.438-7.606,1.27
			c-1.469,0.287-2.855,0.7-4.04,1.253c0.48-1.909-0.217-4.179-3.146-4.94c-2.676-0.701-4.834,1.858-5.531,3.16
			c-0.555,1.036-0.794,2.32-0.786,3.669c-2.608-0.023-5.224,0.026-7.816,0.106C352.274,122.543,353.93,120.614,355.091,118.586
			 M293.677,112.389c0.832,0.046,1.687,0.046,2.547,0.022c-0.156,0.199-0.246,0.412-0.246,0.638
			c-0.779,0.019-1.545,0.052-2.286,0.093c-0.082,0.005-0.171,0.012-0.255,0.015C293.521,112.903,293.588,112.645,293.677,112.389
			 M277.393,115.528l-1.687-4.888c0.787,0.429,1.656,0.816,2.429,0.971c-0.255,1.03,0.051,2.245,0.374,2.979
			c0.174,0.376,0.398,0.769,0.675,1.158c-0.136,0.059-0.254,0.123-0.39,0.183C278.33,115.792,277.866,115.661,277.393,115.528
			 M249.027,107.719c0.353-0.204,0.661-0.481,0.952-0.771c0.45,0.118,0.892,0.211,1.281,0.224c1.612,2.05,2.917,4.194,4.505,6.251
			c-0.03,0.022-0.061,0.042-0.082,0.06C253.547,111.524,251.343,109.594,249.027,107.719 M296.083,105.541
			c0.148,0.433,0.547,0.865,1.071,1.215c-0.509-0.007-1.057,0.055-1.574,0.168C295.746,106.462,295.911,106,296.083,105.541
			 M244.914,104.547c0.277,0.212,0.584,0.412,0.914,0.589c0.098,0.049,0.225,0.116,0.36,0.189c0.038,0.077,0.06,0.16,0.098,0.232
			C245.834,105.215,245.363,104.883,244.914,104.547 M239.015,101.987c2.406,1.619,4.7,3.305,6.896,5.035
			c-0.135,0.035-0.271,0.081-0.39,0.138c-0.006,0.003-0.014,0.008-0.021,0.01c-0.203,0.102-0.353,0.254-0.436,0.405
			c-0.315,0.561,0.217,1.333,1.199,1.357c0.037,0.001,0.083,0.001,0.127,0.004c0.623,0.013,1.087-0.184,1.342-0.46
			c0.09,0.071,0.179,0.141,0.271,0.209c1.679,1.39,3.35,2.8,4.999,4.226c-1.859-0.801-3.913-1.426-6.01-1.713
			c-1.08-0.15-2.414-0.22-3.672-0.098c-1.125-0.335-2.248-0.668-3.38-1.004c-0.016-0.02,0.008-0.036,0-0.06
			c-0.03-0.096-0.151-0.193-0.292-0.229c-0.225-1.88-1.836-3.536-4.018-4.876c-0.861-0.823-1.993-1.591-3.237-2.236
			c0.435,0.01,0.898,0.021,1.379,0.021C235.554,102.715,237.54,102.583,239.015,101.987 M240.566,101.487
			c0.075-0.042,0.129-0.094,0.189-0.144c0.165,0.212,0.329,0.42,0.509,0.624C241.025,101.808,240.8,101.643,240.566,101.487
			 M266.804,55.298c-0.419,0.379-0.832,0.912-0.952,1.434c-0.562-0.378-1.319-0.595-2.114-0.334
			c-1.416,0.465-1.987,1.607-2.39,2.558c-0.113,0.259-0.179,0.51-0.254,0.764c-0.255-0.303-0.517-0.599-0.817-0.875
			c-1.566-1.423-3.665-2.781-6.386-2.988c-2.06-0.157-2.539,0.982-2.179,1.991c-1.41-0.614-3.824-0.673-4.729,0.259
			c-0.6,0.614-0.704,1.315-0.3,2.001c0.254,0.436,0.711,0.954,1.304,1.299c-0.771,0.124-1.445,0.439-1.536,1.031
			c-0.159,1.053,0.988,1.985,1.97,2.716c0.368,0.271,0.75,0.519,1.14,0.751c-0.121,0-0.232-0.01-0.346-0.01
			c-2.631,0.028-5.494,0.389-7.329,1.758c-1.385,1.033-0.291,1.958,1.132,2.353c-1.559,0.411-3.034,1.7-2.436,2.743
			c0.391,0.682,1.186,1.146,2.242,1.322c0.681,0.116,1.566,0.168,2.33,0.042c-0.299,0.496-0.307,1.048,0.354,1.438
			c0.936,0.559,2.247,0.618,3.476,0.567c-1.205,1.27-2.083,2.74-1.67,4.26c0.367,1.371,2.127,1.351,3.461,0.828
			c-0.472,1.086,0.151,2.659,1.74,2.977c1.042,0.206,2.068,0.071,2.937-0.389c0.54-0.294,1.147-0.736,1.463-1.219
			c0.396,0.462,1.041,0.806,1.911,0.693c0.982-0.129,1.738-0.583,2.36-1.116c-2.211,9.305-0.428,18.939,2.922,28.355
			c-0.974,0.695-1.551,1.668-1.776,2.657c-1.229-0.069-2.464-0.118-3.702-0.137c-0.351-0.007-0.607,0.137-0.735,0.329
			c-0.307-0.21-0.711-0.331-1.153-0.303c-0.314-0.387-0.623-0.782-0.907-1.19c-1.117-1.625-2.226-3.318-3.77-4.791
			c0.241-0.076,0.435-0.198,0.591-0.385c0.068-0.085,0.054-0.214-0.022-0.3c1.544-1.574,1.769-3.551,1.266-5.505
			c0.144-1.873-0.576-3.979-1.956-5.547c-1.281-1.466-3.094-3.706-5.785-4.177c-0.158-0.027-0.346,0.022-0.442,0.106
			c-0.39,0.308-0.471,0.644-0.569,1.025c-1.169-0.794-2.354-1.141-3.073-0.185c-0.569,0.756-0.653,1.666-0.66,2.526
			c-0.307-0.326-0.658-0.592-1.191-0.88c-0.18-0.096-0.405-0.027-0.471,0.108c-0.907,1.935-0.802,4.194,0.217,6.213
			c-0.375-0.005-0.772,0.129-1.034,0.335c-2.249-1.425-4.595-2.768-7.06-4.018c2.016-0.445,2.134-3.608,1.867-4.662
			c-0.368-1.457-2.189-3.029-4.699-2.329c-3.134,0.873-0.87,4.18,0.959,6.092c-1.334-0.641-2.698-1.252-4.106-1.833
			c-0.008-0.003,0-0.007,0-0.013c-1.296-1.522-2.916-2.88-4.94-3.996c-1.393-0.767-4.182-2.168-5.996-1.107
			c-2.247,1.314-0.613,3.031,1.387,3.963c2.653,1.227,5.576,1.715,8.79,1.569c1.545,0.729,3.059,1.496,4.542,2.29
			c-0.929,0.509,0.217,1.495,1.17,0.992c0.127-0.068,0.209-0.14,0.27-0.218c0.898,0.5,1.776,1.015,2.652,1.537
			c-0.795-0.16-1.625-0.271-2.503-0.315c-2.278-0.119-5.433,0.182-4.976,2.21c0.015,0.042,0.045,0.076,0.06,0.113
			c-1.911-0.429-4.01-0.717-5.702-0.227c-0.151,0.045-0.255,0.16-0.255,0.266c-0.03,0.401,0.217,0.698,0.487,1.038
			c-1.656-0.146-2.9,0.079-2.592,1.129c0.247,0.829,1.004,1.586,1.776,2.269c-0.54-0.133-1.057-0.194-1.738-0.205
			c-0.234-0.002-0.345,0.144-0.27,0.279c1.985,3.629,7.958,6.685,13.849,6.305c0.413,0.049,0.816,0.088,1.229,0.091
			c1.417,0.005,6.708,0.106,6.813-1.387c0.906,0.313,1.835,0.626,2.757,0.938c-1.574,0.242-2.909,0.838-3.267,2.05
			c-0.406,1.42,0.486,2.64,1.992,3.409c-6.25-1.282-13.153-1.602-19.935-1.158c-0.532,0.037-1.027,0.364-0.831,0.749
			c0.479,0.938,1.093,1.852,1.769,2.753c-0.038,0.188,0.015,0.403,0.217,0.656c0.262,0.326,0.615,0.609,1.012,0.877
			c-0.833,0.181-1.761,0.55-2.817,1.178c0.396-2.791-1.896-6.241-5.584-7.466c-2.053-0.681-4.555,0.493-5.485,1.878
			c-1.027-1.255-2.172-2.611-3.506-3.633c-1.29-0.985-3.561-2.129-5.667-1.953c-2.262,0.184-3.438,1.606-3.349,3.021
			c-2.502-2.674-6.932-4.571-11.743-4.5c-2.646,0.036-3.882,1.257-3.68,2.551c-1.715-0.745-4.308-0.762-6.122-0.429
			c-3.162,0.591-5.389,1.769-6.017,4.001c-0.893,3.202,3.236,6.605,7.95,7.302c-1.544,0.948-1.978,2.675-0.495,4.077
			c0.345,0.326,0.779,0.607,1.266,0.861H33.378v284.034h146.906c-0.06,0.237,0.136,0.499,0.427,0.641
			c4.632,2.255,10.342,3.731,16.248,4.292c-1.574,0.626-3.148,1.245-4.714,1.888c-1.342-0.139-2.623-0.082-3.927-0.031
			c-1.004,0.05-2.008,0.09-3.072,0.045c-0.442-0.021-0.891-0.045-1.342-0.065c0.083-0.268-0.007-0.556-0.419-0.812
			c-13.789-8.6-32.336-6.084-46.651,0.495c-0.435,0.206-0.644,0.649-0.188,0.926c2.646,1.615,5.755,2.961,9.135,3.995
			c-1.057,0.635-1.08,1.922-0.396,2.794c-1.574-0.176-3.276-0.352-4.79-0.298c-1.446,0.057-3.491,0.415-4.316,1.327
			c-0.876,0.978-0.187,2.099,1.087,2.718c-3.485-0.256-7.179,0.611-9.345,2.539c-1.185,1.057-0.696,2.107,0.524,2.628
			c-1.446,0.333-2.667,1.346-3.207,2.213c-0.952,1.52-0.959,2.94,0.697,4.218c0.697,0.544,1.626,0.916,2.653,1.14
			c-4.189,3.174-7.464,7.057-9.765,11.152c-0.217,0.382,0.314,0.7,0.825,0.745c15.205,1.266,33.236-4.862,37.252-15.22
			c1.027-0.949,1.829-2.054,2.421-3.148c0.547,1.17,3.042,1.336,5.118,0.645c2.032-0.68,3.17-2.213,4.047-3.545
			c0.149-0.232,0.293-0.476,0.434-0.713c0.053,0.254,0.159,0.495,0.33,0.728c-5.373,5.34-7.561,12.371-5.808,18.541
			c0.113,0.403,0.787,0.519,1.273,0.373c0.128-0.047,0.255-0.084,0.383-0.127c0.008,0.031,0.008,0.057,0.015,0.087
			c0.381,1.761,2.338,2.432,4.219,2.134c-0.877,1.235-0.585,2.982,0.135,4.145c1.273,2.038,3.291,3.376,6.663,3.517
			c4.826,0.192,9.322-2.996,9.756-6.224c1.589,0.902,4.197,0.979,6.078-0.192c2.863-1.775,2.923-5.655,1.927-8.469
			c2.944,1.911,6.444,0.127,7.884-2.815c0.772-1.599,0.674-3.369,0.089-5.108c11.377-5.249,19.118-13.26,16.104-23.247
			c-0.112-0.377-0.449-0.579-0.846-0.666c0.135-0.166,0.263-0.328,0.397-0.494c2.053-0.736,3.957-1.653,5.674-2.748h11.436
			c-6.355,3.102-11.354,7.605-13.685,12.441c-0.187,0.39,0.323,0.713,0.854,0.744c8.205,0.417,16.553-0.272,23.659-2.408
			c1.634,0.736,3.904,0.934,5.823,0.748c0.817-0.08,1.671-0.174,2.533-0.279c-0.389,0.607-0.741,1.227-1.042,1.848
			c-0.187,0.394,0.33,0.715,0.855,0.74c0.098,0.005,0.193,0.005,0.285,0.012c-0.547,0.313-1.11,0.615-1.657,0.917
			c-0.038,0-0.075-0.009-0.104-0.014c-0.068-0.092-0.128-0.183-0.24-0.27c-1.289-0.947-3.47,0.394-2.188,1.339
			c0.12,0.084,0.247,0.129,0.382,0.185c-2.75,1.585-5.45,3.21-8.049,4.893c-0.93-0.614-2.616-1.024-3.612-1.341
			c-1.715-0.549-3.552-1.024-5.433-1.195c-3.334-0.308-6.729,0.479-7.712,2.86c-0.952,2.309,4.249,2.824,6.483,2.747
			c2.202-0.079,4.931-0.403,7.276-1.064c-1.964,1.349-3.83,2.725-5.613,4.143c-0.367-0.263-0.998-0.363-1.582-0.065l-0.081,0.04
			c-0.69,0.354-0.383,0.921,0.179,1.2c-1.941,1.613-3.754,3.289-5.425,5.033c-0.817-1.314-5.5-1.165-7.052-0.907
			c-2.121,0.359-4.317,1.7-3.094,3.329c1.528,2.037,6.257,0.272,8.954-1.095c-0.854,0.942-1.655,1.906-2.412,2.891
			c-0.007,0.005-0.007,0-0.023,0.005c-2.158,0.982-4.054,2.169-5.545,3.61c-1.034,0.989-2.908,2.966-1.208,4.105
			c2.122,1.413,4.542,0.188,5.771-1.229c1.626-1.869,2.136-3.866,1.672-6.014c0.974-1.09,1.993-2.157,3.064-3.219
			c0.825,0.591,2.197-0.256,1.379-0.86c-0.113-0.077-0.225-0.127-0.345-0.162c0.675-0.636,1.379-1.266,2.083-1.892
			c-0.179,0.544-0.277,1.108-0.285,1.704c-0.007,1.533,0.676,3.627,3.65,3.167c2.452-0.377,2.758-2.883,2.698-4.205
			c-0.068-1.397-0.27-3.224-1.544-4.438c2.219-1.73,4.55-3.395,6.946-4.998c0.068,0.091,0.143,0.176,0.234,0.246
			c0.007,0.009,0.015,0.017,0.021,0.021c0.158,0.127,0.398,0.216,0.629,0.261c0.855,0.169,1.964-0.246,1.919-0.905
			c0-0.028,0-0.056,0-0.087c-0.022-0.419-0.353-0.717-0.779-0.867c0.097-0.065,0.188-0.131,0.292-0.196
			c1.933-1.231,3.896-2.457,5.89-3.67c-1.058,1.313-1.829,2.727-2.098,4.162c-0.346,1.816,0.104,4.637,3.573,4.914
			c3.577,0.288,6.094-1.827,5.892-4.124c-0.225-2.509-1.477-5.116-3.545-7.235c0.938-0.553,1.904-1.095,2.855-1.639
			c2.333,0.054,4.663,0.021,6.963-0.117c-0.052,0.127-0.112,0.263-0.158,0.385c-0.689,1.805-1.588,4.424,1.296,5.599
			c0.135,0.061,0.277,0.096,0.412,0.131c-0.839,1.739-0.163,3.319,2.631,3.754c-4.047,0.973-8.843,3.12-9.495,5.703
			c-0.427,1.7,1.072,3.133,3.072,3.536c-3.777,2.002-5.304,6.275-2.427,8.896c2.008,1.826,4.773,2.234,8.004,1.843
			c1.843-0.234,4.174-1.011,5.237-2.185c0.66,1.23,2.563,1.962,4.962,1.221c4.376-1.348,7.143-4.354,7.659-7.494
			c0.839,1.294,2.817,2.233,4.977,1.739c2-0.464,3.304-2.159,3.837-3.421c0.539-1.311,0.688-2.869,0.801-4.297
			c1.724,0.973,4.744,1.296,6.151,0.077c0.22-0.183,0.384-0.394,0.563-0.603c1.648,1.962,4.511,2.912,6.258,1.271
			c-0.165,2.15,0.652,4.989,3.109,6.035c1.611,0.685,3.508,0.391,4.489-0.415c0.968,2.33,4.901,4.257,8.408,3.676
			c2.437-0.408,3.65-1.573,4.174-3.177c0.293-0.921,0.165-2.225-0.733-3.05c1.445,0.044,2.741-0.631,2.676-1.948
			c-0.128-2.417-2.406-4.561-5.471-5.699c1.574-0.015,3.095-0.666,3.206-1.801c0.023-0.258-0.03-0.511-0.156-0.762
			c0.809,1.604,3.02,3.53,5.471,2.839c3.109-0.872,2.802-3.55,2.509-5.406c-0.194-1.266-0.582-2.764-1.234-4.218
			c0.892,0.253,1.805,0.48,2.72,0.696c2.66,1.896,5.254,3.845,7.778,5.838c-2.517,1.885-4.325,4.342-5.097,6.804
			c-0.703,2.255,1.32,4.595,4.918,4.67c3.49,0.065,4.556-2.678,4.608-4.509c0.045-1.444-0.404-2.921-1.155-4.323
			c1.702,1.391,3.38,2.8,5.021,4.211c0.084,0.07,0.158,0.152,0.24,0.223c-0.457,0.11-0.841,0.368-0.959,0.78
			c-0.008,0.026-0.015,0.062-0.022,0.087c-0.179,0.646,0.817,1.17,1.702,1.086c0.239-0.021,0.501-0.087,0.682-0.192l0.021-0.021
			c0.111-0.061,0.203-0.141,0.285-0.223c2.023,1.822,3.957,3.704,5.777,5.637c-1.529,1.073-2.128,2.859-2.495,4.236
			c-0.352,1.301-0.601,3.814,1.737,4.433c2.842,0.746,3.973-1.257,4.311-2.778c0.128-0.59,0.148-1.162,0.09-1.711
			c0.563,0.687,1.116,1.376,1.64,2.072c-0.125,0.026-0.246,0.065-0.373,0.132c-0.938,0.516,0.24,1.488,1.176,0.989
			c0.825,1.148,1.604,2.309,2.322,3.483c-0.92,2.084-0.868,4.107,0.339,6.114c0.899,1.528,3.036,2.978,5.433,1.786
			c1.941-0.958,0.518-3.092-0.285-4.178c-1.168-1.572-2.779-2.939-4.698-4.126c0,0-0.008,0-0.021,0
			c-0.532-1.048-1.109-2.086-1.74-3.1c2.354,1.623,6.656,3.838,8.611,1.968c1.566-1.489-0.315-3.027-2.339-3.592
			c-1.467-0.41-6.078-1.029-7.163,0.192c-1.274-1.888-2.706-3.724-4.272-5.52c0.623-0.218,1.05-0.752,0.442-1.169
			c-0.023-0.017-0.045-0.026-0.066-0.048c-0.519-0.352-1.162-0.316-1.581-0.089c-1.455-1.58-2.998-3.127-4.641-4.655
			c2.167,0.891,4.798,1.477,6.963,1.774c2.188,0.298,7.449,0.303,7.015-2.072c-0.449-2.452-3.643-3.566-7.007-3.597
			c-1.904-0.017-3.823,0.271-5.637,0.64c-1.049,0.219-2.802,0.453-3.858,0.974c-2.204-1.925-4.52-3.803-6.888-5.639
			c0.136-0.035,0.276-0.07,0.412-0.146c1.477-0.809-0.39-2.352-1.865-1.545c-0.136,0.075-0.217,0.162-0.292,0.249
			c-0.038-0.005-0.084,0.004-0.114,0.009c-1.004-0.762-2.008-1.519-3.027-2.265c-0.974-0.715-1.962-1.493-2.975-2.285
			c1.402,0.262,2.826,0.489,4.271,0.67c1.155,0.284,2.302,0.547,3.403,0.77c2.968,0.6,7.044,0.312,8.362-1.878
			c1.088-1.792-2.683-3.282-4.608-3.772c-0.629-0.162-1.326-0.281-2.067-0.378c-2.774-4.564-7.629-8.697-13.686-11.427
			c0.495-0.412,0.894-0.851,1.207-1.324h6.985c0.313,0.167,0.636,0.333,0.951,0.521c0.337,0.19,0.666,0.396,1.011,0.604
			c-0.329,0.172-0.547,0.438-0.464,0.816c2.734,12.523,19.522,18.39,36.796,19.313c0.532,0.025,1.109-0.237,1.012-0.641
			c-2.511-10.697-17.363-21.165-34.286-19.868c-0.39-0.251-0.779-0.5-1.176-0.746h7.27c8.671,1.397,17.266,3.018,25.756,4.815
			c0.008,0,0.022,0.007,0.046,0.017c0.074,0.115,0.18,0.218,0.322,0.298c1.836,2.567,4.504,4.644,7.689,6.264
			c0.097,0.176,0.187,0.353,0.277,0.53c-0.405,0.045-0.787,0.211-0.99,0.569c-5.268,9.547,0.531,18.268,10.56,24.645
			c-0.981,1.66-1.491,3.399-1.094,5.06c0.741,3.057,3.784,5.188,7.134,3.605c-1.634,2.673-2.466,6.513-0.045,8.564
			c1.59,1.351,4.183,1.555,5.958,0.822c-0.315,3.233,3.394,6.855,8.214,7.167c3.365,0.216,5.657-0.902,7.382-2.78
			c0.981-1.073,1.678-2.764,1.093-4.074c1.792,0.49,3.876,0.025,4.663-1.67c0.016-0.03,0.021-0.056,0.028-0.084
			c0.12,0.049,0.233,0.11,0.353,0.159c0.449,0.197,1.14,0.157,1.342-0.231c3.155-5.906,2.615-13.082-1.469-18.925
			c0.232-0.206,0.39-0.438,0.495-0.675c0.089,0.248,0.171,0.499,0.271,0.745c0.56,1.404,1.334,3.036,3.183,3.92
			c1.889,0.907,4.393,0.999,5.203-0.101c0.328,1.145,0.868,2.321,1.67,3.364c1.581,10.653,17.978,18.591,33.289,18.924
			c0.518,0.015,1.109-0.248,0.989-0.649c-1.334-4.287-3.688-8.479-7.098-12.05c1.072-0.117,2.084-0.368,2.908-0.832
			c1.919-1.095,2.247-2.497,1.657-4.092c-0.338-0.919-1.305-2.049-2.653-2.526c1.318-0.383,2.046-1.372,1.116-2.542
			c-1.694-2.129-5.149-3.369-8.641-3.486c1.394-0.478,2.338-1.512,1.693-2.566c-0.608-0.987-2.548-1.56-3.965-1.761
			c-1.477-0.216-3.198-0.216-4.788-0.207c0.869-0.792,1.146-2.063,0.256-2.804c3.566-0.666,6.946-1.676,9.944-2.991
			c0.502-0.221,0.404-0.687,0.022-0.934c-12.621-7.994-30.366-12.418-45.978-5.361c-0.465,0.206-0.621,0.483-0.592,0.758
			c-0.45-0.021-0.906-0.047-1.355-0.078c-2.437-0.154-4.505-0.733-6.903-0.74c-1.394-0.797-2.81-1.583-4.22-2.361
			c5.968,0.062,11.947-0.802,17.035-2.541c0.458-0.157,0.802-0.574,0.404-0.889c-0.066-0.045-0.128-0.096-0.195-0.141
			c5.404-0.912,10.508-2.598,14.615-4.933c0.411-0.237,0.502-0.696,0.021-0.933c-6.062-3.001-13.011-5.287-20.092-6.216
			c-0.015-0.014-0.038-0.032-0.06-0.054h1.596c2.211,0.261,4.64,0.308,6.746,0h134.031V127.403H441.28
			c-0.779-1.279-2.36-2.173-4.486-2.822c-1.71-0.525-4.28-0.779-6.154-0.223c0.51-1.257-0.434-2.59-3.042-2.903
			c-4.729-0.57-9.548,0.84-12.635,3.223c0.411-1.391-0.419-2.92-2.608-3.339c-2.046-0.39-4.542,0.507-6.048,1.34
			c-1.566,0.867-2.998,2.092-4.309,3.223c-0.585-1.462-2.796-2.887-4.991-2.428c-2.585,0.545-4.797,2.117-6.078,3.928h-2.076
			c0.87-0.812,1.672-1.648,2.361-2.513c0.293-0.364-0.129-0.736-0.646-0.829c-0.231-0.039-0.464-0.074-0.696-0.113
			c-0.373-0.775-1.296-1.301-2.421-1.646c0.231-0.134,0.428-0.291,0.57-0.5c0.06-0.096,0.045-0.234-0.068-0.318
			c-1.4-1.106-4.008-1.417-6.288-1.565c0.466-0.255,0.923-0.519,1.388-0.771c0.105-0.061,0.225-0.111,0.33-0.169
			c0.164,0.305,0.563,0.563,1.175,0.632c0.038,0.003,0.084,0.011,0.129,0.013c0.967,0.115,1.716-0.565,1.589-1.159
			c-0.038-0.16-0.144-0.336-0.308-0.458c-0.008-0.005-0.015-0.012-0.015-0.017c-0.105-0.07-0.218-0.131-0.346-0.183
			c2.676-1.392,5.435-2.726,8.281-3.98c1.626,1.011,4.278,1.386,6.332,1.611c1.935,0.215,5.675,0.341,6.551-1.245
			c1.071-1.923-1.926-2.652-4.189-2.851c-0.884-0.078-1.724-0.083-2.548-0.036c1.012-0.388,2.031-0.775,3.064-1.14
			c0.03,0.085,0.091,0.171,0.188,0.25c0.779,0.624,2.21-0.181,1.453-0.809c1.694-0.569,3.409-1.114,5.148-1.619
			c3.103,0.589,6.108,0.517,9.076-0.32c2.239-0.639,4.36-2.093,2.563-3.689c-1.461-1.289-4.608-0.3-6.196,0.257
			c-2.324,0.815-4.326,1.919-6.057,3.232c0,0.005,0,0.01-0.008,0.012c-1.551,0.377-3.079,0.784-4.579,1.227
			c2.376-1.616,5.599-4.543,2.788-5.832c-2.241-1.031-4.496,0.26-5.298,1.632c-0.585,0.999-1.433,4.108,0.404,4.821
			c-2.728,0.865-5.373,1.836-7.95,2.893c0.666-0.503,1.251-1.041,1.722-1.611c0.105-0.124,0.023-0.281-0.201-0.303
			c-0.674-0.059-1.206-0.054-1.769,0.019c0.922-0.591,1.851-1.261,2.278-2.053c0.539-1.004-0.631-1.356-2.293-1.387
			c0.352-0.308,0.644-0.577,0.712-0.971c0.022-0.105-0.054-0.235-0.188-0.294c-2.353-0.994-6.017-0.348-8.483,0.024
			c-2.638,0.399-5.418,1.489-7.345,2.837c-2.472,1.096-4.443,2.559-5.095,4.393c-0.143,0.024-0.293,0.108-0.337,0.202
			c-0.008,0.018-0.008,0.037-0.008,0.057c-5.756,1.022-11.437,1.994-17.012,3.442c-0.825,0.215-1.641,0.449-2.45,0.692
			c1.079-0.695,1.993-1.537,2.87-2.33c2.122-1.918,3.942-3.963,6.069-5.878c1.807,0.133,4.856-1.075,5.83-1.441
			c0.376-0.141,0.728-0.31,1.058-0.494c5.402-1.595,8.416-6.197,7.547-10.014c-0.031-0.143-0.232-0.234-0.435-0.16
			c-0.593,0.232-1.004,0.458-1.38,0.746c0.187-0.848,0.308-1.757-0.074-2.562c-0.487-1.018-1.739-0.801-3.081-0.136
			c0-0.39-0.007-0.729-0.314-1.072c-0.081-0.094-0.255-0.16-0.419-0.152c-2.766,0.184-5.074,2.205-6.677,3.522
			c-1.725,1.405-2.916,3.411-3.208,5.273c-0.951,1.883-1.178,3.853-0.022,5.57c-0.098,0.081-0.135,0.205-0.082,0.298
			c0.104,0.198,0.276,0.34,0.479,0.442c-1.858,1.293-3.343,2.851-4.819,4.336c-1.589,1.609-3.492,2.94-5.329,4.374
			c-1.49-0.095-2.989-0.155-4.489-0.176c0.008-0.03,0.03-0.062,0.038-0.094c0.016-0.269-0.022-0.525-0.104-0.774
			c1.627-1.91,3.08-3.883,4.189-5.959c3.581-6.73,3.267-14.008,2.179-21.187c0.945,0.671,2.384,1.103,3.523,0.739
			c0.981-0.312,1.611-0.878,1.799-1.603c0.112-0.465,0.128-1.064-0.121-1.567c0.758,0.166,1.581,0.131,2.113-0.342
			c0.953-0.847,0.698-2.037,0.421-3.011c-0.173-0.624-0.436-1.208-0.772-1.758c0.511,0.178,1.012,0.345,1.537,0.472
			c2.473,0.602,5.334,0.949,7.777,0.105c1.837-0.634,1.297-1.76,0.181-2.471c1.679-0.01,3.725-0.865,3.717-1.979
			c0-0.732-0.494-1.354-1.4-1.774c-0.57-0.269-1.371-0.528-2.15-0.595c0.539-0.393,0.839-0.905,0.427-1.431
			c-0.735-0.938-2.458-1.285-3.875-1.525c-0.39-0.066-0.757-0.104-1.147-0.147c0.444-0.176,0.878-0.364,1.274-0.577
			c2.069-1.099,4.017-2.556,4.234-4.393c0.166-1.389-1.536-1.673-3.027-1.405c0.87-0.964,0.878-2.593-0.54-3.174
			c-0.93-0.382-1.971-0.432-2.975-0.134c-0.645,0.188-1.394,0.508-1.889,0.919c-0.211-0.514-0.696-0.958-1.58-1
			c-1.567-0.069-2.916,0.729-3.973,1.413c-0.391,0.256-0.75,0.519-1.086,0.788c0-0.075,0.014-0.155,0.006-0.232
			c-0.12-1.766-0.749-3.679-2.839-4.874c-1.582-0.897-2.923-0.128-3.456,0.843c-0.666-1.039-2.622-1.989-4.151-1.555
			c-1.004,0.287-1.672,0.832-1.896,1.552c-0.148,0.463-0.194,1.062,0.016,1.57c-0.741-0.187-1.566-0.175-2.129,0.284
			c-0.794,0.646-0.84,1.529-0.72,2.357c-1.933-0.776-4.136-1.316-6.385-0.988c-2.023,0.294-1.932,1.474-1.123,2.355
			c-1.626-0.282-3.935,0.186-4.362,1.268c-0.271,0.704-0.036,1.391,0.667,1.958c0.457,0.356,1.133,0.749,1.859,0.946
			c-0.669,0.285-1.154,0.729-0.961,1.307c0.354,1.034,1.875,1.669,3.155,2.151c2.144,0.804,4.318,1.151,6.535,1.205
			c-1.992,0.414-3.896,1.064-5.38,1.967c-1.949,1.195-3.74,2.738-3.778,4.583c-0.021,1.391,1.71,1.595,3.163,1.257
			c-0.765,1.006-0.605,2.629,0.862,3.143c0.966,0.338,2.016,0.338,2.99-0.002c0.621-0.22,1.341-0.573,1.791-1.006
			c0.255,0.503,0.795,0.924,1.671,0.924c1.573,0,2.832-0.86,3.822-1.594c0.329-0.248,0.63-0.503,0.906-0.763
			c-0.038,0.419-0.052,0.838,0,1.245c0.232,1.752,0.974,3.631,3.104,4.766l-4.302,6.794c-0.076-0.197-0.166-0.387-0.293-0.571
			c-0.66-0.974-1.866-0.659-3.079,0.105c-0.068-0.385-0.136-0.722-0.503-1.038c-0.098-0.088-0.284-0.139-0.45-0.116
			c-2.704,0.399-4.646,2.592-6.01,4.023c-0.301,0.31-0.563,0.651-0.802,1c-1.319,0.132-2.586,0.661-3.65,1.147
			c-2.411,1.104-4.113,2.474-5.38,4.03c0.412-1.645,0.396-3.352-0.248-4.895c-0.839-2.025-2.314-4.133-5.215-5.14
			c-2.182-0.759-3.432,0.369-3.664,1.594c-1.186-1.085-3.829-1.833-5.426-1.059c-1.05,0.51-1.612,1.26-1.581,2.139
			c0.007,0.557,0.187,1.262,0.628,1.814c-0.936-0.082-1.881,0.079-2.354,0.708c-0.831,1.126-0.148,2.484,0.48,3.579
			c0.218,0.37,0.466,0.721,0.727,1.06c-0.645-0.256-1.296-0.486-1.971-0.664c-2.915-0.772-6.303-1.248-9.239-0.305
			c-0.429,0.139-0.721,0.305-0.952,0.481c0.06-0.17,0.112-0.345,0.188-0.515c0.029-0.09,0.074-0.177,0.104-0.266
			c0.413,0.178,0.951,0.227,1.514,0.04l0.113-0.037c0.877-0.296,0.883-1.146,0.246-1.573c-0.164-0.113-0.403-0.209-0.645-0.242
			l-0.028-0.007c-0.144-0.018-0.293-0.02-0.444-0.012c0.931-2.191,1.965-4.365,3.147-6.513c2.205,0.163,4.67-0.599,6.521-1.237
			c1.747-0.604,4.856-1.999,4.167-3.623c-0.84-1.974-3.897-1.362-5.89-0.616c-0.771,0.288-1.454,0.623-2.076,0.987
			c0.464-0.716,0.944-1.431,1.453-2.138c0.098,0.057,0.225,0.099,0.376,0.123c1.175,0.192,1.619-1.03,0.456-1.232
			c0.854-1.136,1.753-2.259,2.706-3.359c3.02-0.767,5.365-2.027,7.014-3.889c1.252-1.413,1.663-3.43-1.199-3.993
			c-2.309-0.455-3.964,1.601-4.758,2.69c-1.146,1.584-1.777,3.27-2.01,5.017c0,0.005,0.008,0.007,0.008,0.012
			c-0.921,0.925-1.783,1.863-2.601,2.82c0.479-2.249,0.487-5.893-2.907-5.805c-2.713,0.07-3.388,2.007-2.825,3.434
			c0.413,1.036,2.488,3.871,4.588,3.711c-1.462,1.831-2.76,3.711-3.921,5.638c-0.645-0.202-1.529-0.106-1.648,0.473
			c-0.008,0.02-0.016,0.044-0.016,0.064c-0.112,0.491,0.323,0.813,0.848,0.901c-0.98,1.735-1.866,3.504-2.676,5.307
			c-0.262-1.699-1.169-3.463-2.137-4.798c-0.974-1.353-4.159-4.17-6.706-2.492c-2.616,1.725-2.002,4.11,0.008,5.927
			c1.138,1.027,2.646,1.877,4.182,2.624c0.898,0.434,2.24,1.229,3.499,1.477c-0.599,1.496-1.131,3.003-1.633,4.514
			c-0.548,0.368-0.915,0.812-0.93,1.311c-0.008,0.312,0.09,0.599,0.217,0.875c-0.044,0.138-0.09,0.271-0.127,0.407
			c-0.136-0.054-0.255-0.105-0.429-0.131c-1.849-0.303-2.539,1.631-0.681,1.932c0.172,0.028,0.315,0.021,0.464,0.013
			c0.022,0.017,0.054,0.033,0.076,0.054c-0.105,0.365-0.202,0.729-0.309,1.094c-1.229,0.096-2.614,0.241-4.091,0.442
			c-0.098-0.181-0.187-0.369-0.285-0.542c-0.988-1.764-3.387-3.551-6.332-3.427c0.877-1.23,1.155-2.664,1.042-4.122
			c0.463-1.843,0.113-3.995-0.967-5.661c-1.027-1.555-2.443-3.926-5.021-4.605c-0.157-0.038-0.353-0.005-0.464,0.071
			c-0.435,0.273-0.578,0.599-0.742,0.97c-1.019-0.881-2.136-1.314-3.014-0.423c-0.419,0.416-0.666,0.901-0.839,1.405l-7.03-20.366
			c0-0.05,0.016-0.102,0.022-0.156c0.541,1.353,1.448,2.654,2.744,3.682c1.708,1.345,3.95,2.602,6.684,2.683
			c2.069,0.064,2.43-1.092,1.965-2.084c1.469,0.547,3.889,0.49,4.698-0.481c0.532-0.638,0.57-1.342,0.089-2.008
			c-0.298-0.426-0.81-0.917-1.438-1.237c0.764-0.155,1.402-0.505,1.431-1.097c0.045-1.06-1.184-1.931-2.24-2.619
			c-0.36-0.233-0.734-0.439-1.109-0.638c0.623,0.042,1.243,0.062,1.852,0.039c2.63-0.1,5.463-0.542,7.218-1.96
			c1.317-1.072,0.164-1.959-1.275-2.316c1.521-0.454,2.923-1.785,2.257-2.81c-0.428-0.67-1.244-1.114-2.324-1.263
			c-0.683-0.09-1.58-0.119-2.33,0.026c0.271-0.5,0.247-1.054-0.443-1.429c-1.221-0.663-2.996-0.53-4.451-0.376
			c-0.937,0.098-1.806,0.256-2.638,0.46c0.285-0.331,0.547-0.667,0.751-1.015c0.974-1.646,1.579-3.562,0.411-5.23
			c-0.885-1.258-2.578-0.931-3.665-0.199c0.038-1.128-1.169-2.538-2.824-2.569c-0.03,0-0.062,0-0.092,0
			C268.34,54.415,267.434,54.725,266.804,55.298"/>
	</defs>
	<use xlink:href="#SVGID_1_"  overflow="visible" fill="#FFFFFF"/>
	<clipPath id="SVGID_2_">
		<use xlink:href="#SVGID_1_"  overflow="visible"/>
	</clipPath>
	<rect x="25.553" y="42.626" clip-path="url(#SVGID_2_)" fill="#FFFFFF" width="549.018" height="447.424"/>
	<g opacity="0.1" clip-path="url(#SVGID_2_)">
		<g>
			<defs>
				<rect id="SVGID_3_" x="26.798" y="31.344" width="542.191" height="448.361"/>
			</defs>
			<use xlink:href="#SVGID_3_"  overflow="visible" fill="#FFFFFF"/>
			<clipPath id="SVGID_4_">
				<use xlink:href="#SVGID_3_"  overflow="visible"/>
			</clipPath>
			<rect x="26.79" y="31.347" clip-path="url(#SVGID_4_)" fill="#FFFFFF" width="542.191" height="448.365"/>
		</g>
	</g>
</g>
</svg>
